<?xml version="1.0" standalone="no"?>
<!DOCTYPE svg PUBLIC "-//W3C//DTD SVG 20010904//EN"
 "http://www.w3.org/TR/2001/REC-SVG-20010904/DTD/svg10.dtd">
<svg version="1.0" xmlns="http://www.w3.org/2000/svg"
 width="1024.000000pt" height="1024.000000pt" viewBox="0 0 1024.000000 1024.000000"
 preserveAspectRatio="xMidYMid meet">

<g transform="translate(0.000000,1024.000000) scale(0.100000,-0.100000)"
fill="#000000" stroke="none">
<path d="M2898 8353 c-10 -2 -18 -6 -18 -8 0 -6 -81 -546 -120 -805 -22 -146
-83 -548 -135 -895 -52 -346 -110 -733 -129 -860 -67 -437 -147 -970 -156
-1035 -5 -36 -32 -216 -60 -400 -28 -184 -66 -438 -85 -565 -19 -126 -46 -306
-60 -400 -14 -93 -52 -352 -85 -575 -33 -223 -69 -462 -80 -531 -11 -69 -20
-135 -20 -147 l0 -22 704 0 c601 0 705 2 716 14 6 8 33 163 60 343 27 180 72
475 99 654 28 179 60 389 71 465 11 76 40 274 64 439 25 165 52 347 60 405 9
58 18 120 21 138 l6 32 354 0 353 0 20 -32 c11 -18 342 -573 737 -1233 394
-660 724 -1206 733 -1213 12 -9 193 -12 827 -12 447 0 814 3 818 6 8 9 -20 63
-102 192 -38 61 -149 240 -247 398 -97 159 -198 323 -224 364 -49 77 -96 154
-285 460 -59 96 -149 240 -198 320 -50 80 -114 183 -143 230 -28 47 -126 205
-217 351 -91 146 -179 291 -197 322 l-31 56 38 10 c21 6 43 11 49 11 6 0 75
18 152 40 743 210 1247 666 1427 1290 126 439 101 895 -70 1245 -115 236 -304
442 -545 593 -95 59 -299 155 -417 196 -186 64 -462 122 -668 141 -38 4 -81 9
-95 13 -30 7 -2897 12 -2922 5z m2472 -1077 c447 -72 700 -246 774 -533 21
-79 21 -246 0 -354 -31 -168 -105 -309 -228 -437 -218 -227 -560 -364 -976
-390 -154 -10 -1054 -11 -1064 -1 -5 5 30 257 114 799 22 146 61 400 85 565
52 348 54 357 69 368 6 4 261 6 566 4 460 -3 573 -7 660 -21z"/>
</g>
</svg>
